#N canvas 2552 150 946 779 10;
#X obj 101 21 oscparse;
#X obj 101 -10 netreceive -u -b 5005;
#X obj 100 63 list trim;
#X obj 79 304 mtof;
#X obj 84 386 osc~ 440;
#X obj 503 728 dac~;
#X msg 717 553 1;
#X msg 715 610 0;
#X obj 515 639 *~ 0;
#X obj 505 549 r~ audio;
#X obj 278 309 mtof;
#X obj 415 286 mtof;
#X obj 261 388 osc~ 440;
#X obj 405 391 osc~ 440;
#X obj 210 477 s~ audio;
#X obj 375 222 s volume;
#X obj 721 438 r volume;
#X obj 98 153 route midi1 midi2 midi3 volume;
#X obj 28 228 print midi1;
#X obj 121 228 print midi2;
#X obj 234 228 print midi3;
#X connect 0 0 2 0;
#X connect 1 0 0 0;
#X connect 2 0 17 0;
#X connect 3 0 4 0;
#X connect 4 0 14 0;
#X connect 6 0 8 1;
#X connect 7 0 8 1;
#X connect 8 0 5 0;
#X connect 8 0 5 1;
#X connect 9 0 8 0;
#X connect 10 0 12 0;
#X connect 11 0 13 0;
#X connect 12 0 14 0;
#X connect 13 0 14 0;
#X connect 16 0 8 1;
#X connect 17 0 3 0;
#X connect 17 0 18 0;
#X connect 17 1 10 0;
#X connect 17 1 19 0;
#X connect 17 2 11 0;
#X connect 17 2 20 0;
#X connect 17 3 15 0;
